<?xml version="1.0" encoding="utf-8"?><!-- Uploaded to: SVG Repo, www.svgrepo.com, Generator: SVG Repo Mixer Tools -->
<svg version="1.1" id="Uploaded to svgrepo.com" xmlns="http://www.w3.org/2000/svg" xmlns:xlink="http://www.w3.org/1999/xlink" 
	 width="800px" height="800px" viewBox="0 0 32 32" xml:space="preserve">
<style type="text/css">
	.feather_een{fill:#111918;}
</style>
<path class="feather_een" d="M24,9h-4V4c0.552,0,1-0.448,1-1c0-1.657-1.343-3-3-3h-4c-1.657,0-3,1.343-3,3c0,0.552,0.448,1,1,1v5H8
	c-1.657,0-3,1.343-3,3v14c0,1.657,1.343,3,3,3h0.277c-0.25,0.43-0.36,0.953-0.207,1.518c0.201,0.745,0.826,1.327,1.587,1.453
	C10.913,32.18,12,31.217,12,30c0-0.366-0.106-0.705-0.277-1h8.555c-0.25,0.43-0.36,0.953-0.207,1.518
	c0.201,0.745,0.826,1.327,1.587,1.453C22.913,32.18,24,31.217,24,30c0-0.366-0.106-0.705-0.277-1H24c1.657,0,3-1.343,3-3V12
	C27,10.343,25.657,9,24,9z M14,1h4c1.105,0,2,0.895,2,2h-1c0-0.552-0.448-1-1-1h-4c-0.552,0-1,0.448-1,1h-1C12,1.895,12.895,1,14,1z
	 M19,4v5h-6V4c0.552,0,1-0.448,1-1h4C18,3.552,18.448,4,19,4z M10,31c-0.551,0-1-0.449-1-1s0.449-1,1-1s1,0.449,1,1S10.551,31,10,31
	z M22,31c-0.551,0-1-0.449-1-1s0.449-1,1-1s1,0.449,1,1S22.551,31,22,31z M26,26c0,1.105-0.895,2-2,2H8c-1.105,0-2-0.895-2-2V16h8v1
	c0,0.552,0.448,1,1,1h2c0.552,0,1-0.448,1-1v-1h8V26z M15,17v-3h2v3H15z M26,15h-8v-1c0-0.552-0.448-1-1-1h-2c-0.552,0-1,0.448-1,1
	v1H6v-3c0-1.105,0.895-2,2-2h16c1.105,0,2,0.895,2,2V15z"/>
</svg>